# xmcd
#
# Track frame offsets: 
#        150
#        13761
#        23335
#        33121
#        43789
#        60921
#        76583
#        91409
#        105473
#        116527
#        128361
#        139440
#        153901
#        165547
#        177343
#        190334
#        203516
#        216169
#        227937
#        239803
#
# Disc length: 3379 seconds
#
# Revision: 0
# Processed by: cddbd v1.5.2PL0 Copyright (c) Steve Scherf et al.
# Submitted via: ExactAudioCopy v0.99pb4
#
DISCID=f90d3114
DTITLE=Dick Hipple - Country Hits Volume 2
DYEAR=1900
DGENRE=Western
TTITLE0=Don't Be Angry
TTITLE1=Kiss an Angel Good Mornin'
TTITLE2=Someone Loves You Honey
TTITLE3=I'm Just Me
TTITLE4=Jukebox In My Mind
TTITLE5=Daddy Frank
TTITLE6=Ramblin' Fever
TTITLE7=That's the Way Love Goes
TTITLE8=Please Help Me I'm Falling
TTITLE9=Send Me the Pillow That You Dream On
TTITLE10=Boquet of Roses
TTITLE11=Amazing Love
TTITLE12=Is Anybody Going to San Antone
TTITLE13=A White Sport Coat
TTITLE14=Just a Little Lovin'
TTITLE15=Swingin' Doors
TTITLE16=Hope Your Feeling me
TTITLE17=Thanks Alot
TTITLE18=There Goes My Everything
TTITLE19=Have You Ever Been Lonely
EXTD=
EXTT0=
EXTT1=
EXTT2=
EXTT3=
EXTT4=
EXTT5=
EXTT6=
EXTT7=
EXTT8=
EXTT9=
EXTT10=
EXTT11=
EXTT12=
EXTT13=
EXTT14=
EXTT15=
EXTT16=
EXTT17=
EXTT18=
EXTT19=
PLAYORDER=
